Coordinates
version=1
nRows=5
nColumns=42
inDegrees=yes

Units are S.I. units (second, meters, Newtons, ...)
If the header above contains a line with 'inDegrees', this indicates whether rotational values are in degrees (yes) or radians (no).

endheader
time	pelvis_tilt	pelvis_list	pelvis_rotation	pelvis_tx	pelvis_ty	pelvis_tz	hip_flexion_r	hip_adduction_r	hip_rotation_r	knee_angle_r	knee_adduction_r	knee_angle_r_beta	ankle_angle_r	subtalar_angle_r	mtp_angle_r	hip_flexion_l	hip_adduction_l	hip_rotation_l	knee_angle_l	knee_adduction_l	knee_angle_l_beta	ankle_angle_l	subtalar_angle_l	mtp_angle_l	lumbar_extension	lumbar_bending	lumbar_rotation	arm_flex_r	arm_add_r	arm_rot_r	elbow_flex_r	pro_sup_r	wrist_flex_r	wrist_dev_r	arm_flex_l	arm_add_l	arm_rot_l	elbow_flex_l	pro_sup_l	wrist_flex_l	wrist_dev_l
      3.00000000	      1.71454530	      2.18051419	      3.72137581	     -0.19187015	      0.85906302	     -0.20861567	     14.20348390	     -8.67346896	     -5.01684164	     69.27105361	     -2.71020535	      1.20900796	      0.59003884	      4.68091651	     -7.52334410	     20.65531813	      5.72440536	    -11.34367053	     40.13076070	     -7.38107677	      0.70041391	     18.80624799	     20.03185908	     -7.52334410	    -22.08267796	     -0.92012228	     -3.60463756	      1.00471067	     -9.85259447	    -15.09121399	     50.59292251	     90.00000001	      0.00000000	      0.00000000	     15.44723138	    -13.81664256	     29.44679392	     50.03880651	     90.00000001	      0.00000000	      0.00000000
      3.01000000	      1.67371175	      2.20846457	      3.74015808	     -0.18880663	      0.85813109	     -0.20973238	     15.56753557	     -8.60384487	     -4.58489350	     70.68289051	     -2.87671471	      1.23364916	      1.37956647	      3.96128449	     -7.52280289	     20.67571819	      5.77608832	    -11.60745741	     40.51772911	     -7.50856980	      0.70716778	     19.24689307	     20.26697201	     -7.52280289	    -22.18610667	     -0.93469842	     -3.78882852	      0.94543278	     -9.81982796	    -15.46360970	     50.24977058	     90.00000001	      0.00000000	      0.00000000	     15.58390518	    -13.91550167	     29.36371761	     49.89137510	     90.00000001	      0.00000000	      0.00000000
      3.02000000	      1.71773354	      2.22222266	      3.72902125	     -0.18564496	      0.85739802	     -0.21064047	     16.82031307	     -8.50352036	     -4.35708082	     71.86525401	     -3.16185009	      1.25428530	      2.14404576	      3.50533589	     -7.52234929	     20.56276463	      5.78061343	    -11.76641067	     40.90225512	     -7.55676717	      0.71387902	     19.59405843	     20.43156969	     -7.52234929	    -22.36103934	     -0.96175241	     -3.93022935	      0.86944804	     -9.77835136	    -15.76176433	     49.94647920	     90.00000001	      0.00000000	      0.00000000	     15.69596229	    -14.02788164	     29.26384172	     49.74667580	     90.00000001	      0.00000000	      0.00000000
      3.03000000	      1.66541149	      2.25749091	      3.71131437	     -0.18265268	      0.85654365	     -0.21154778	     18.19911452	     -8.41732616	     -4.29010243	     72.86701396	     -3.59331982	      1.27176931	      3.06104045	      3.15913728	     -7.52188102	     20.56156978	      5.83348990	    -11.96791977	     41.22979081	     -7.65550907	      0.71959560	     19.99451898	     20.63273690	     -7.52188102	    -22.43228009	     -1.00852051	     -4.06303179	      0.80464043	     -9.72347010	    -16.13869404	     49.58496583	     90.00000001	      0.00000000	      0.00000000	     15.81837388	    -14.11932146	     29.17444340	     49.58530764	     90.00000001	      0.00000000	      0.00000000
      3.04000000	      1.90052332	      2.16217149	      3.80099023	     -0.17951289	      0.85638408	     -0.21253036	     19.08586002	     -8.21717263	     -4.25920899	     73.41537343	     -3.76654435	      1.28133999	      3.27185259	      3.24214311	     -7.52161460	     20.16645169	      5.79427062	    -11.84902508	     41.45650665	     -7.68790410	      0.72355254	     19.95464294	     20.53601276	     -7.52161460	    -22.83474988	     -0.83562467	     -4.28433170	      0.66193148	     -9.79894588	    -16.19937408	     49.51753003	     90.00000001	      0.00000000	      0.00000000	     15.91752341	    -14.26032502	     29.04394411	     49.57770444	     90.00000001	      0.00000000	      0.00000000
